<svg width="1000" height="600" xmlns="http://www.w3.org/2000/svg"><path fill="#fff" d="M0 0h1000v600H0z"/><path d="M0 150h0c64.026 2.684 128.052 5.367 179 4 50.948-1.367 88.819-6.785 146-2s133.673 19.774 191 11c57.327-8.774 95.49-41.31 144-37 48.51 4.31 107.368 45.468 177 51 69.632 5.532 150.038-24.562 179-35 28.962-10.438 6.481-1.219 24 8M0 300h0c65.155 4.852 130.31 9.704 182 3 51.69-6.704 89.917-24.964 140-27 50.083-2.036 112.022 12.15 172 13 59.978.85 117.994-11.638 172-12 54.006-.362 104.002 11.403 169 15 64.998 3.597 145-.972 175-1 30-.028 10 4.486 30 9M0 450h0c55.3 7.389 110.6 14.777 165 15 54.4.223 107.902-6.72 165-7 57.098-.28 117.791 6.102 176 1s113.932-21.687 163-21c49.068.687 91.48 18.647 150 21 58.52 2.353 133.149-10.899 166-15 32.851-4.101 23.926.95 55 6" fill="none" stroke="#fff" stroke-width="4" stroke-linecap="round"/></svg>