<svg width="854" height="453" viewBox="0 0 854 453" fill="none" xmlns="http://www.w3.org/2000/svg">
<path d="M107.451 25.8337V0H1.8212V25.8337H40.6127V127.349H68.6592V25.8337H107.451Z" fill="#1FD662"/>
<path d="M218.624 127.349V0H190.577V50.394H138.855V0H110.809V127.349H138.855V76.2277H190.577V127.349H218.624Z" fill="#1FD662"/>
<path d="M328.035 127.349V102.425H258.829V75.6819H318.929V50.7578H258.829V24.9241H327.124V0H230.965V127.349H328.035Z" fill="#1FD662"/>
<path d="M24.7683 193.753C24.7683 190.842 25.3754 188.113 26.5895 185.566C27.9251 183.019 29.7462 180.836 32.0531 179.017C34.4814 177.198 37.3346 175.742 40.6127 174.651C44.0123 173.559 47.7761 173.013 51.9042 173.013C58.4605 173.013 64.7133 174.105 70.6625 176.288C76.7332 178.471 82.7431 181.988 88.6924 186.84L97.0699 175.742C90.5136 170.527 83.7144 166.646 76.6725 164.099C69.7519 161.431 61.6172 160.096 52.2684 160.096C46.1977 160.096 40.6127 161.006 35.5134 162.825C30.414 164.523 25.9824 166.949 22.2186 170.102C18.4548 173.135 15.5409 176.773 13.4769 181.018C11.4128 185.263 10.3808 189.933 10.3808 195.027C10.3808 200.363 11.2307 204.972 12.9305 208.853C14.6303 212.734 17.2407 216.13 20.7617 219.041C24.2827 221.952 28.7142 224.438 34.0564 226.5C39.52 228.562 45.8942 230.381 53.179 231.958C59.8567 233.413 65.3203 234.929 69.5698 236.506C73.9407 238.083 77.3402 239.841 79.7685 241.782C82.1968 243.723 83.8966 245.906 84.8679 248.331C85.8392 250.636 86.3248 253.304 86.3248 256.336C86.3248 262.886 83.7144 268.161 78.4937 272.164C73.3943 276.166 66.5345 278.167 57.9141 278.167C49.051 278.167 41.2198 276.712 34.4207 273.801C27.6215 270.769 20.8831 266.221 14.2054 260.157L5.28148 270.708C12.9305 277.622 20.9438 282.776 29.3213 286.172C37.8202 289.447 47.1691 291.084 57.3678 291.084C63.6813 291.084 69.5091 290.235 74.8513 288.537C80.1935 286.839 84.7465 284.414 88.5103 281.26C92.3955 278.107 95.4308 274.286 97.6163 269.799C99.8017 265.311 100.894 260.339 100.894 254.881C100.894 245.057 97.4949 237.355 90.6957 231.776C84.018 226.197 73.5764 221.831 59.3711 218.677C52.3291 217.222 46.562 215.706 42.0697 214.129C37.5774 212.431 34.0564 210.612 31.5067 208.671C28.9571 206.609 27.1966 204.365 26.2253 201.94C25.254 199.514 24.7683 196.785 24.7683 193.753Z" fill="#1FD662"/>
<path d="M166.64 175.196H209.438V161.916H109.272V175.196H152.07V289.265H166.64V175.196Z" fill="#1FD662"/>
<path d="M332.813 289.265L293.657 237.234C298.635 236.385 303.249 234.929 307.498 232.867C311.747 230.806 315.39 228.259 318.425 225.227C321.582 222.073 324.01 218.435 325.71 214.311C327.41 210.066 328.26 205.275 328.26 199.939C328.26 194.238 327.167 189.084 324.982 184.475C322.796 179.745 319.7 175.742 315.693 172.467C311.687 169.071 306.83 166.464 301.124 164.645C295.539 162.825 289.225 161.916 282.183 161.916H227.365V289.265H241.753V239.781H278.177L315.147 289.265H332.813ZM313.69 200.484C313.69 204.608 312.84 208.307 311.14 211.582C309.562 214.857 307.316 217.646 304.402 219.951C301.488 222.134 298.028 223.832 294.021 225.045C290.015 226.257 285.644 226.864 280.909 226.864H241.753V175.196H281.091C291.411 175.196 299.424 177.44 305.13 181.928C310.837 186.294 313.69 192.48 313.69 200.484Z" fill="#1FD662"/>
<path d="M442.022 161.916H349.869V289.265H442.933V276.166H364.257V231.594H433.827V218.495H364.257V175.014H442.022V161.916Z" fill="#1FD662"/>
<path d="M523.415 161.006H509.939L451.842 289.265H466.594L481.71 255.608H551.098L566.031 289.265H581.512L523.415 161.006ZM545.452 242.692H487.356L516.495 177.743L545.452 242.692Z" fill="#1FD662"/>
<path d="M705.178 186.112V289.265H719.566V161.916H704.996L658.555 231.412L612.115 161.916H597.545V289.265H611.569V186.294L658.009 254.335H658.738L705.178 186.112Z" fill="#1FD662"/>
<path d="M801.003 238.689L854 161.916H837.245L793.9 225.59L750.92 161.916H733.437L786.434 238.871V289.265H801.003V238.689Z" fill="#1FD662"/>
<path d="M135.133 451.181L80.497 322.922H54.636L0 451.181H28.5928L40.2485 422.618H94.156L105.812 451.181H135.133ZM84.1394 397.876H50.2651L67.2022 356.578L84.1394 397.876Z" fill="#1FD662"/>
<path d="M301.962 323.831H272.641L246.233 410.065L217.64 323.467H193.601L165.008 410.065L138.6 323.831H108.551L152.077 452.09H176.481L205.256 368.767L234.031 452.09H258.435L301.962 323.831Z" fill="#1FD662"/>
<path d="M410.518 451.181L355.882 322.922H330.021L275.385 451.181H303.978L315.634 422.618H369.541L381.197 451.181H410.518ZM359.525 397.876H325.65L342.587 356.578L359.525 397.876Z" fill="#1FD662"/>
<path d="M522.165 451.181L491.022 405.699C499.157 402.667 505.713 397.937 510.691 391.508C515.791 384.959 518.34 376.53 518.34 366.22V365.857C518.34 352.637 514.091 342.327 505.592 334.929C497.214 327.531 485.437 323.831 470.261 323.831H411.982V451.181H440.029V410.429H462.065L489.383 451.181H522.165ZM489.93 367.676C489.93 373.134 488.048 377.5 484.284 380.775C480.641 384.049 475.36 385.687 468.439 385.687H440.029V349.119H467.893C474.814 349.119 480.216 350.635 484.102 353.668C487.987 356.7 489.93 361.248 489.93 367.312V367.676Z" fill="#1FD662"/>
<path d="M642.848 387.506V387.142C642.848 378.167 641.209 369.859 637.93 362.218C634.652 354.456 629.978 347.725 623.907 342.024C617.958 336.324 610.794 331.897 602.417 328.743C594.161 325.469 585.055 323.831 575.099 323.831H525.38V451.181H575.099C585.055 451.181 594.161 449.543 602.417 446.269C610.794 442.994 617.958 438.506 623.907 432.806C629.978 427.106 634.652 420.374 637.93 412.612C641.209 404.85 642.848 396.481 642.848 387.506ZM613.526 387.87C613.526 393.57 612.555 398.725 610.612 403.334C608.791 407.943 606.181 411.945 602.781 415.341C599.503 418.737 595.496 421.345 590.761 423.164C586.026 424.983 580.805 425.893 575.099 425.893H553.427V349.119H575.099C580.805 349.119 586.026 350.09 590.761 352.03C595.496 353.849 599.503 356.457 602.781 359.853C606.181 363.249 608.791 367.312 610.612 372.042C612.555 376.772 613.526 381.927 613.526 387.506V387.87Z" fill="#1FD662"/>
<path d="M741.78 413.522V413.158C741.78 407.579 740.869 402.788 739.048 398.786C737.348 394.783 734.738 391.327 731.217 388.416C727.817 385.384 723.568 382.837 718.469 380.775C713.491 378.592 707.784 376.651 701.349 374.953C695.886 373.498 691.333 372.224 687.69 371.133C684.169 370.041 681.377 368.889 679.313 367.676C677.249 366.463 675.792 365.129 674.942 363.673C674.213 362.097 673.849 360.278 673.849 358.216V357.852C673.849 354.698 675.185 352.091 677.856 350.029C680.648 347.846 684.776 346.754 690.24 346.754C695.704 346.754 701.167 347.906 706.631 350.211C712.094 352.394 717.679 355.426 723.386 359.307L737.955 338.204C731.399 332.988 724.175 328.986 716.283 326.196C708.513 323.407 699.953 322.012 690.604 322.012C684.048 322.012 678.038 322.922 672.574 324.741C667.111 326.56 662.376 329.168 658.369 332.564C654.484 335.96 651.448 340.023 649.263 344.753C647.078 349.362 645.985 354.577 645.985 360.399V360.763C645.985 367.069 646.956 372.345 648.899 376.59C650.963 380.835 653.816 384.413 657.458 387.324C661.101 390.114 665.532 392.479 670.753 394.419C675.974 396.36 681.802 398.118 688.237 399.695C693.579 401.029 697.889 402.303 701.167 403.516C704.567 404.729 707.177 405.941 708.998 407.154C710.941 408.367 712.216 409.701 712.823 411.157C713.551 412.491 713.916 414.067 713.916 415.887V416.251C713.916 420.01 712.277 422.982 708.998 425.165C705.842 427.227 701.349 428.258 695.522 428.258C688.237 428.258 681.498 426.863 675.306 424.073C669.236 421.284 663.286 417.524 657.458 412.794L640.886 432.624C648.535 439.537 657.034 444.692 666.382 448.088C675.731 451.363 685.262 453 694.975 453C701.896 453 708.209 452.151 713.916 450.453C719.622 448.634 724.539 446.087 728.667 442.812C732.795 439.416 736.013 435.292 738.32 430.441C740.627 425.468 741.78 419.829 741.78 413.522Z" fill="#1FD662"/>
</svg>
